# File created by Blade
# Date/Time:  Wed Apr 08 17:19:54 2015
# Frame Rate: 120.000 fps
#------------------------------------------------------
:FULLY-SPECIFIED
:DEGREES
1062
root 7.790114 37.220700 0.442587 157.310725 -55.927174 -140.770716
Spine 9.596149 -2.527125 0.841022
Head -0.525488 0.383457 25.027555
LeftShoulder -8.181286 15.381976 18.418538
LeftArm 14.565868 23.670702 -75.790201
LeftForeArm 23.377663 0.000000 21.206518
LeftHand -10.272085 -0.000000 -19.594953
LeftHandThumb1 -26.253704 0.000000 33.147579
RightShoulder -43.172857 -51.585268 33.094481
RightArm 43.813161 -20.801407 63.623417
RightForeArm 32.585660 0.000000 8.608283
RightHand -4.333410 -0.000000 5.411149
RightHandThumb1 -24.326973 -0.000000 -32.862282
LeftUpLeg -19.207763 45.417360 0.800541
LeftLeg 12.428304 -0.000000 -0.000000
LeftFoot -19.301833 12.524071 -10.406643
LeftToeBase 10.028816 -0.000000 -0.000000
RightUpLeg 13.274165 -9.849571 -28.751065
RightLeg 140.033021 -0.000000 -0.000000
RightFoot 40.534343 7.195764 16.066809
RightToeBase 19.360151 -0.000000 -0.000000
1063
root 7.818790 37.233059 0.444374 157.483266 -55.754585 -140.786030
Spine 9.580764 -2.540575 0.757048
Head -0.567066 0.389066 25.005735
LeftShoulder -8.186182 15.409210 18.356626
LeftArm 14.631048 23.696789 -75.790955
LeftForeArm 23.268415 -0.000000 21.265395
LeftHand -10.343715 -0.000000 -19.460921
LeftHandThumb1 -26.253704 0.000000 33.147579
RightShoulder -43.199941 -51.642325 33.030720
RightArm 43.760658 -20.876451 63.705853
RightForeArm 32.421641 0.000000 8.627181
RightHand -4.383101 -0.000000 5.503173
RightHandThumb1 -24.326973 -0.000000 -32.862282
LeftUpLeg -19.524340 45.649252 0.697101
LeftLeg 12.536746 -0.000000 -0.000000
LeftFoot -19.345475 12.340171 -10.607016
LeftToeBase 10.124391 -0.000000 -0.000000
RightUpLeg 13.462789 -9.732505 -28.709062
RightLeg 139.983753 -0.000000 -0.000000
RightFoot 40.612731 7.232263 16.152580
RightToeBase 19.407730 -0.000000 -0.000000
1064
root 7.848572 37.243366 0.449861 157.701279 -55.591898 -140.831112
Spine 9.559337 -2.571644 0.661668
Head -0.633506 0.444682 24.953227
LeftShoulder -8.232109 15.384976 18.269009
LeftArm 14.658283 23.799313 -75.762734
LeftForeArm 23.093112 -0.000000 21.373975
LeftHand -10.469803 0.000000 -19.361765
LeftHandThumb1 -26.253704 0.000000 33.147579
RightShoulder -43.189206 -51.641524 32.906330
RightArm 43.702907 -21.016635 63.751314
RightForeArm 32.345103 -0.000000 8.631301
RightHand -4.432204 0.000000 5.558538
RightHandThumb1 -24.326973 -0.000000 -32.862282
LeftUpLeg -19.857760 45.881610 0.537504
LeftLeg 12.608659 -0.000000 -0.000000
LeftFoot -19.319452 12.185171 -10.689779
LeftToeBase 9.999451 -0.000000 -0.000000
RightUpLeg 13.612211 -9.604930 -28.650558
RightLeg 139.937420 -0.000000 -0.000000
RightFoot 40.736467 7.392441 16.249066
RightToeBase 19.324991 -0.000000 -0.000000
1065
root 7.876350 37.253740 0.455974 157.931047 -55.438630 -140.904579
Spine 9.536262 -2.606973 0.545189
Head -0.668161 0.542272 24.892924
LeftShoulder -8.254587 15.388540 18.186476
LeftArm 14.695617 23.818634 -75.771811
LeftForeArm 23.009045 -0.000000 21.467526
LeftHand -10.489776 0.000000 -19.276770
LeftHandThumb1 -26.253704 0.000000 33.147579
RightShoulder -43.117287 -51.658927 32.781150
RightArm 43.651910 -21.182627 63.761756
RightForeArm 32.324879 -0.000000 8.590712
RightHand -4.485308 -0.000000 5.534990
RightHandThumb1 -24.326973 -0.000000 -32.862282
LeftUpLeg -20.136076 46.097865 0.380358
LeftLeg 12.632207 -0.000000 -0.000000
LeftFoot -19.328544 12.004213 -10.865724
LeftToeBase 10.077944 -0.000000 -0.000000
RightUpLeg 13.771404 -9.505272 -28.597287
RightLeg 139.884387 -0.000000 -0.000000
RightFoot 40.781961 7.439842 16.314712
RightToeBase 19.339909 -0.000000 -0.000000
1066
root 7.903844 37.263741 0.462368 158.175691 -55.294331 -140.998901
Spine 9.518768 -2.630386 0.417445
Head -0.730637 0.678308 24.829853
LeftShoulder -8.213175 15.341055 18.138331
LeftArm 14.619819 23.791281 -75.857479
LeftForeArm 22.986508 -0.000000 21.645755
LeftHand -10.645078 0.000000 -19.140662
LeftHandThumb1 -26.253704 0.000000 33.147579
RightShoulder -43.180251 -51.675480 32.799666
RightArm 43.685679 -21.313513 63.727996
RightForeArm 32.241899 -0.000000 8.544569
RightHand -4.486103 -0.000000 5.541513
RightHandThumb1 -24.326973 -0.000000 -32.862282
LeftUpLeg -20.421370 46.359817 0.199365
LeftLeg 12.661048 -0.000000 -0.000000
LeftFoot -19.366208 11.693679 -11.178782
LeftToeBase 10.233507 -0.000000 -0.000000
RightUpLeg 13.904206 -9.416180 -28.519397
RightLeg 139.818139 -0.000000 -0.000000
RightFoot 40.857697 7.537333 16.332276
RightToeBase 19.319833 -0.000000 -0.000000
1067
root 7.927851 37.274183 0.469986 158.443290 -55.134861 -141.129681
Spine 9.493689 -2.626794 0.274027
Head -0.763743 0.772878 24.781145
LeftShoulder -8.182519 15.285020 18.104803
LeftArm 14.576421 23.467742 -76.088502
LeftForeArm 23.306679 -0.000000 21.658315
LeftHand -10.515861 -0.000000 -19.282228
LeftHandThumb1 -26.253704 0.000000 33.147579
RightShoulder -43.179148 -51.700488 32.807189
RightArm 43.687442 -21.361494 63.766306
RightForeArm 32.128480 0.000000 8.456317
RightHand -4.559639 -0.000000 5.625818
RightHandThumb1 -24.326973 -0.000000 -32.862282
LeftUpLeg -20.685107 46.653630 0.005069
LeftLeg 12.680201 -0.000000 -0.000000
LeftFoot -19.386215 11.403171 -11.400596
LeftToeBase 10.335184 -0.000000 -0.000000
RightUpLeg 14.009470 -9.343333 -28.432053
RightLeg 139.753822 -0.000000 -0.000000
RightFoot 40.860789 7.566279 16.306678
RightToeBase 19.522206 -0.000000 -0.000000
1068
root 7.952570 37.285692 0.478643 158.702223 -54.955108 -141.254924
Spine 9.466846 -2.599591 0.155599
Head -0.772120 0.874903 24.703850
LeftShoulder -8.150370 15.327496 18.043045
LeftArm 14.661787 23.406488 -76.155026
LeftForeArm 23.384423 -0.000000 21.773717
LeftHand -10.574782 0.000000 -19.239571
LeftHandThumb1 -26.253704 0.000000 33.147579
RightShoulder -43.138945 -51.712963 32.766574
RightArm 43.726635 -21.581555 63.670936
RightForeArm 32.132497 0.000000 8.355708
RightHand -4.600592 0.000000 5.427588
RightHandThumb1 -24.326973 -0.000000 -32.862282
LeftUpLeg -20.958460 46.940590 -0.162558
LeftLeg 12.752704 -0.000000 -0.000000
LeftFoot -19.400955 11.091061 -11.602939
LeftToeBase 10.422441 -0.000000 -0.000000
RightUpLeg 14.084839 -9.249203 -28.287218
RightLeg 139.682949 -0.000000 -0.000000
RightFoot 40.893332 7.541317 16.438241
RightToeBase 19.189375 -0.000000 -0.000000
1069
root 7.976264 37.297914 0.485401 158.953162 -54.772865 -141.392594
Spine 9.462390 -2.582177 0.026793
Head -0.805842 0.990402 24.620676
LeftShoulder -8.126970 15.302981 18.001946
LeftArm 14.650604 23.379401 -76.254226
LeftForeArm 23.384281 -0.000000 21.931846
LeftHand -10.487968 -0.000000 -19.216009
LeftHandThumb1 -26.253704 0.000000 33.147579
RightShoulder -43.070452 -51.705901 32.723310
RightArm 43.765521 -21.761613 63.588848
RightForeArm 32.136085 -0.000000 8.231828
RightHand -4.583758 -0.000000 5.509575
RightHandThumb1 -24.326973 -0.000000 -32.862282
LeftUpLeg -21.246479 47.226541 -0.306934
LeftLeg 12.920207 -0.000000 -0.000000
LeftFoot -19.398580 10.787619 -11.762768
LeftToeBase 10.405564 -0.000000 -0.000000
RightUpLeg 14.162918 -9.222899 -28.127095
RightLeg 139.616361 -0.000000 -0.000000
RightFoot 40.779333 7.519428 16.335151
RightToeBase 19.342171 -0.000000 -0.000000
1070
root 8.000654 37.311182 0.492043 159.210894 -54.568200 -141.544091
Spine 9.451488 -2.540093 -0.104033
Head -0.828503 1.110279 24.548481
LeftShoulder -8.114205 15.303336 17.974433
LeftArm 14.719181 23.447144 -76.323009
LeftForeArm 23.280135 -0.000000 22.036945
LeftHand -10.472585 0.000000 -19.155176
LeftHandThumb1 -26.253704 0.000000 33.147579
RightShoulder -43.092084 -51.744358 32.769056
RightArm 43.910884 -21.927790 63.473816
RightForeArm 32.047561 0.000000 8.090219
RightHand -4.650415 -0.000000 5.498972
RightHandThumb1 -24.326973 -0.000000 -32.862282
LeftUpLeg -21.537462 47.494088 -0.411362
LeftLeg 13.156820 -0.000000 -0.000000
LeftFoot -19.372893 10.470705 -11.921849
LeftToeBase 10.245899 -0.000000 -0.000000
RightUpLeg 14.196777 -9.169091 -27.936677
RightLeg 139.566344 -0.000000 -0.000000
RightFoot 40.734583 7.469686 16.337263
RightToeBase 19.139641 -0.000000 -0.000000
1071
root 8.024056 37.326499 0.499130 159.449694 -54.363763 -141.683767
Spine 9.444803 -2.497356 -0.221750
Head -0.834695 1.219723 24.485209
LeftShoulder -8.108691 15.291908 17.960149
LeftArm 14.819536 23.562262 -76.387303
LeftForeArm 23.186792 -0.000000 22.099253
LeftHand -10.471621 -0.000000 -19.119847
LeftHandThumb1 -26.253704 0.000000 33.147579
RightShoulder -43.054527 -51.770828 32.769451
RightArm 44.014082 -22.089210 63.397546
RightForeArm 31.897995 -0.000000 7.965085
RightHand -4.636480 -0.000000 5.425880
RightHandThumb1 -24.326973 -0.000000 -32.862282
LeftUpLeg -21.835889 47.744753 -0.496375
LeftLeg 13.433171 -0.000000 -0.000000
LeftFoot -19.343322 10.144942 -12.170592
LeftToeBase 10.104621 -0.000000 -0.000000
RightUpLeg 14.214431 -9.147874 -27.726730
RightLeg 139.515342 -0.000000 -0.000000
RightFoot 40.644924 7.390453 16.315444
RightToeBase 19.080910 -0.000000 -0.000000
1072
root 8.045129 37.342204 0.504844 159.683615 -54.147132 -141.836856
Spine 9.436218 -2.454908 -0.340527
Head -0.798631 1.352036 24.429685
LeftShoulder -8.151546 15.274997 17.947683
LeftArm 14.957591 23.731064 -76.440102
LeftForeArm 23.023309 -0.000000 22.119846
LeftHand -10.477788 -0.000000 -19.138288
LeftHandThumb1 -26.253704 0.000000 33.147579
RightShoulder -42.953035 -51.801698 32.717529
RightArm 44.097495 -22.300529 63.287217
RightForeArm 31.746961 -0.000000 7.876928
RightHand -4.728011 0.000000 5.261716
RightHandThumb1 -24.326973 -0.000000 -32.862282
LeftUpLeg -22.044278 47.898192 -0.488186
LeftLeg 13.732974 -0.000000 -0.000000
LeftFoot -19.278662 9.888530 -12.228555
LeftToeBase 9.909885 -0.000000 -0.000000
RightUpLeg 14.237606 -9.108636 -27.491037
RightLeg 139.465480 -0.000000 -0.000000
RightFoot 40.535390 7.329869 16.327960
RightToeBase 19.187007 -0.000000 -0.000000
